<?xml version="1.0" encoding="UTF-8"?>
<!DOCTYPE svg PUBLIC "-//W3C//DTD SVG 1.1//EN" "http://www.w3.org/Graphics/SVG/1.1/DTD/svg11.dtd">
<svg xmlns="http://www.w3.org/2000/svg" version="1.1" width="180px" height="180px" style="shape-rendering:geometricPrecision; text-rendering:geometricPrecision; image-rendering:optimizeQuality; fill-rule:evenodd; clip-rule:evenodd" xmlns:xlink="http://www.w3.org/1999/xlink">
<g><path style="opacity:0.989" fill="#98dc5f" d="M 164.5,36.5 C 164.698,38.5753 164.865,40.5753 165,42.5C 164.107,41.9186 163.107,41.5852 162,41.5C 152.055,44.2067 141.888,45.7067 131.5,46C 132.252,45.3292 132.586,44.4959 132.5,43.5C 136.141,40.0317 139.974,36.6984 144,33.5C 146.333,30.5 148.667,27.5 151,24.5C 152.484,21.5552 153.818,18.5552 155,15.5C 159.214,22.0093 162.38,29.0093 164.5,36.5 Z"/></g>
<g><path style="opacity:0.992" fill="#8cd865" d="M 164.5,36.5 C 166.589,40.5015 167.922,44.8348 168.5,49.5C 166.981,50.4098 165.315,51.2432 163.5,52C 145.555,55.3848 127.388,58.8848 109,62.5C 107.319,62.3917 106.152,61.7251 105.5,60.5C 113.986,54.0863 122.986,48.4196 132.5,43.5C 132.586,44.4959 132.252,45.3292 131.5,46C 141.888,45.7067 152.055,44.2067 162,41.5C 163.107,41.5852 164.107,41.9186 165,42.5C 164.865,40.5753 164.698,38.5753 164.5,36.5 Z"/></g>
<g><path style="opacity:0.996" fill="#87d669" d="M 168.5,49.5 C 169.434,50.5676 169.768,51.901 169.5,53.5C 169.32,55.5347 168.82,57.5347 168,59.5C 163.58,59.024 159.08,58.8573 154.5,59C 155.5,58.6667 156.5,58.3333 157.5,58C 153.058,57.3555 149.391,58.6888 146.5,62C 144.167,62.6667 141.833,62.6667 139.5,62C 140.833,61.6667 142.167,61.3333 143.5,61C 136.675,60.8535 130.008,61.8535 123.5,64C 126.047,64.6595 128.547,64.4929 131,63.5C 132.722,63.6107 132.888,64.1107 131.5,65C 128.563,65.1001 125.896,65.9334 123.5,67.5C 122.393,66.9781 121.226,66.6448 120,66.5C 115.497,68.2302 110.83,69.2302 106,69.5C 101.024,70.9917 96.5237,72.6584 92.5,74.5C 92.5,73.8333 92.1667,73.5 91.5,73.5C 94.9005,67.8003 99.5671,63.467 105.5,60.5C 106.152,61.7251 107.319,62.3917 109,62.5C 127.388,58.8848 145.555,55.3848 163.5,52C 165.315,51.2432 166.981,50.4098 168.5,49.5 Z"/></g>
<g><path style="opacity:0.996" fill="#83d46c" d="M 169.5,53.5 C 170.255,56.0529 170.922,58.7196 171.5,61.5C 170.766,62.8775 170.099,64.3775 169.5,66C 162.416,68.6556 155.083,70.1556 147.5,70.5C 148.167,68.1806 148.334,65.8473 148,63.5C 147.626,64.4162 147.126,65.2496 146.5,66C 139.243,67.7439 132.076,69.5772 125,71.5C 122.04,71.6953 119.04,71.6953 116,71.5C 108.11,73.8671 100.11,75.8671 92,77.5C 91.5304,76.4232 91.6971,75.4232 92.5,74.5C 96.5237,72.6584 101.024,70.9917 106,69.5C 110.83,69.2302 115.497,68.2302 120,66.5C 121.226,66.6448 122.393,66.9781 123.5,67.5C 125.896,65.9334 128.563,65.1001 131.5,65C 132.888,64.1107 132.722,63.6107 131,63.5C 128.547,64.4929 126.047,64.6595 123.5,64C 130.008,61.8535 136.675,60.8535 143.5,61C 142.167,61.3333 140.833,61.6667 139.5,62C 141.833,62.6667 144.167,62.6667 146.5,62C 149.391,58.6888 153.058,57.3555 157.5,58C 156.5,58.3333 155.5,58.6667 154.5,59C 159.08,58.8573 163.58,59.024 168,59.5C 168.82,57.5347 169.32,55.5347 169.5,53.5 Z"/></g>
<g><path style="opacity:0.995" fill="#7cd16e" d="M 171.5,61.5 C 171.575,64.2062 171.908,66.8728 172.5,69.5C 171.732,70.2625 171.232,71.2625 171,72.5C 170.439,71.9781 169.772,71.6448 169,71.5C 161.49,73.7183 153.823,75.385 146,76.5C 146.592,73.7341 146.426,71.7341 145.5,70.5C 144.662,70.8417 144.328,71.5084 144.5,72.5C 143.662,72.8417 143.328,73.5084 143.5,74.5C 142.272,75.3065 141.272,76.3065 140.5,77.5C 139.352,76.105 138.352,76.2716 137.5,78C 129.744,78.2784 122.577,80.1118 116,83.5C 114.938,82.9032 113.772,82.5698 112.5,82.5C 105.397,84.1163 98.2307,85.783 91,87.5C 86.7528,87.7712 85.5862,86.1045 87.5,82.5C 88.0231,79.122 89.3565,76.122 91.5,73.5C 92.1667,73.5 92.5,73.8333 92.5,74.5C 91.6971,75.4232 91.5304,76.4232 92,77.5C 100.11,75.8671 108.11,73.8671 116,71.5C 119.04,71.6953 122.04,71.6953 125,71.5C 132.076,69.5772 139.243,67.7439 146.5,66C 147.126,65.2496 147.626,64.4162 148,63.5C 148.334,65.8473 148.167,68.1806 147.5,70.5C 155.083,70.1556 162.416,68.6556 169.5,66C 170.099,64.3775 170.766,62.8775 171.5,61.5 Z"/></g>
<g><path style="opacity:0.993" fill="#90d963" d="M 57.5,80.5 C 57.4142,81.4959 57.7476,82.3292 58.5,83C 42.1304,83.4423 25.7971,82.7756 9.5,81C 8.61983,79.6439 8.28649,78.1439 8.5,76.5C 9.26785,67.8647 11.2679,59.5314 14.5,51.5C 17.7805,56.7807 21.7805,61.4474 26.5,65.5C 36.789,70.8126 47.1223,75.8126 57.5,80.5 Z"/></g>
<g><path style="opacity:0.996" fill="#74cd74" d="M 172.5,69.5 C 172.482,74.9559 171.815,80.2892 170.5,85.5C 168.036,87.7446 165.202,88.078 162,86.5C 153.108,87.4613 144.775,89.1279 137,91.5C 135.97,91.1639 135.47,90.4972 135.5,89.5C 138.95,84.9336 141.617,79.9336 143.5,74.5C 144.338,74.1583 144.672,73.4916 144.5,72.5C 145.338,72.1583 145.672,71.4916 145.5,70.5C 146.426,71.7341 146.592,73.7341 146,76.5C 153.823,75.385 161.49,73.7183 169,71.5C 169.772,71.6448 170.439,71.9781 171,72.5C 171.232,71.2625 171.732,70.2625 172.5,69.5 Z"/></g>
<g><path style="opacity:0.994" fill="#74ce74" d="M 140.5,77.5 C 136.936,84.0646 132.27,89.7313 126.5,94.5C 125.375,93.9859 124.209,93.6526 123,93.5C 120.2,94.1253 117.366,94.792 114.5,95.5C 116.5,95.8333 118.5,96.1667 120.5,96.5C 114.366,97.5612 108.366,98.8946 102.5,100.5C 99.5182,99.6677 96.5182,99.501 93.5,100C 95.1667,100.333 96.8333,100.667 98.5,101C 95.4818,101.499 92.4818,101.332 89.5,100.5C 87.9559,100.79 86.6226,101.456 85.5,102.5C 84.8313,100.369 84.1646,98.3691 83.5,96.5C 84.2411,93.5867 84.7411,90.5867 85,87.5C 85.3736,85.5087 86.207,83.842 87.5,82.5C 85.5862,86.1045 86.7528,87.7712 91,87.5C 98.2307,85.783 105.397,84.1163 112.5,82.5C 113.772,82.5698 114.938,82.9032 116,83.5C 122.577,80.1118 129.744,78.2784 137.5,78C 138.352,76.2716 139.352,76.105 140.5,77.5 Z"/></g>
<g><path style="opacity:0.989" fill="#82d46c" d="M 8.5,76.5 C 8.28649,78.1439 8.61983,79.6439 9.5,81C 25.7971,82.7756 42.1304,83.4423 58.5,83C 57.7476,82.3292 57.4142,81.4959 57.5,80.5C 64.4654,83.1478 70.1321,87.4811 74.5,93.5C 74.6247,96.8925 72.958,98.2259 69.5,97.5C 56.4417,96.9331 43.4417,95.9331 30.5,94.5C 28.5121,95.2888 28.1787,96.4555 29.5,98C 22.5863,98.186 15.7529,98.686 9,99.5C 8.99775,96.9488 8.16441,94.9488 6.5,93.5C 6.21601,87.5827 6.88267,81.916 8.5,76.5 Z"/></g>
<g><path style="opacity:0.995" fill="#69ca7a" d="M 170.5,85.5 C 170.706,88.4951 170.04,91.1617 168.5,93.5C 166.957,94.7358 165.957,96.4024 165.5,98.5C 163.955,99.4519 162.288,99.7852 160.5,99.5C 160.5,100.5 160.5,101.5 160.5,102.5C 148.975,104.116 137.308,106.283 125.5,109C 122.374,110.303 119.374,111.803 116.5,113.5C 115.833,113.333 115.167,113.167 114.5,113C 115.337,111.989 115.67,110.822 115.5,109.5C 121.833,102.5 128.5,95.8333 135.5,89.5C 135.47,90.4972 135.97,91.1639 137,91.5C 144.775,89.1279 153.108,87.4613 162,86.5C 165.202,88.078 168.036,87.7446 170.5,85.5 Z"/></g>
<g><path style="opacity:0.994" fill="#76ce73" d="M 6.5,93.5 C 8.16441,94.9488 8.99775,96.9488 9,99.5C 15.7529,98.686 22.5863,98.186 29.5,98C 28.1787,96.4555 28.5121,95.2888 30.5,94.5C 43.4417,95.9331 56.4417,96.9331 69.5,97.5C 72.958,98.2259 74.6247,96.8925 74.5,93.5C 78.5144,99.5257 81.181,106.192 82.5,113.5C 81.71,114.609 81.21,115.942 81,117.5C 73.1427,116.947 65.3094,115.947 57.5,114.5C 56.0755,114.623 54.7421,114.957 53.5,115.5C 51.5,114.833 49.5,114.167 47.5,113.5C 46.2878,110.893 44.2878,109.226 41.5,108.5C 38.8712,105.369 36.0379,102.369 33,99.5C 32.5304,100.577 32.6971,101.577 33.5,102.5C 32.8478,103.725 31.6811,104.392 30,104.5C 24.1826,103.834 18.3493,103.334 12.5,103C 11.2845,100.904 10.4512,101.071 10,103.5C 9.72158,102.584 9.22158,101.918 8.5,101.5C 7.70937,98.885 7.0427,96.2184 6.5,93.5 Z"/></g>
<g><path style="opacity:0.994" fill="#68c87b" d="M 126.5,94.5 C 118.118,103.381 108.952,111.381 99,118.5C 95.6656,122.501 92.8323,126.834 90.5,131.5C 85.0535,120.557 82.7202,108.89 83.5,96.5C 84.1646,98.3691 84.8313,100.369 85.5,102.5C 86.6226,101.456 87.9559,100.79 89.5,100.5C 92.4818,101.332 95.4818,101.499 98.5,101C 96.8333,100.667 95.1667,100.333 93.5,100C 96.5182,99.501 99.5182,99.6677 102.5,100.5C 108.366,98.8946 114.366,97.5612 120.5,96.5C 118.5,96.1667 116.5,95.8333 114.5,95.5C 117.366,94.792 120.2,94.1253 123,93.5C 124.209,93.6526 125.375,93.9859 126.5,94.5 Z"/></g>
<g><path style="opacity:0.987" fill="#5dc481" d="M 168.5,93.5 C 163.713,110.787 152.713,121.954 135.5,127C 124.404,128.492 113.404,130.492 102.5,133C 95.5539,137.954 91.8872,144.787 91.5,153.5C 90.5,153.5 89.5,153.5 88.5,153.5C 88.8899,141.059 93.3899,130.392 102,121.5C 106.074,116.921 110.574,112.921 115.5,109.5C 115.67,110.822 115.337,111.989 114.5,113C 115.167,113.167 115.833,113.333 116.5,113.5C 119.374,111.803 122.374,110.303 125.5,109C 137.308,106.283 148.975,104.116 160.5,102.5C 160.5,101.5 160.5,100.5 160.5,99.5C 162.288,99.7852 163.955,99.4519 165.5,98.5C 165.957,96.4024 166.957,94.7358 168.5,93.5 Z"/></g>
<g><path style="opacity:0.979" fill="#6dcb78" d="M 8.5,101.5 C 9.22158,101.918 9.72158,102.584 10,103.5C 10.4512,101.071 11.2845,100.904 12.5,103C 18.3493,103.334 24.1826,103.834 30,104.5C 31.6811,104.392 32.8478,103.725 33.5,102.5C 35.9024,104.909 38.5691,106.909 41.5,108.5C 42.9108,110.914 44.9108,112.581 47.5,113.5C 47.5,113.833 47.5,114.167 47.5,114.5C 47.5774,115.75 48.244,116.583 49.5,117C 44.78,117.221 40.1133,117.721 35.5,118.5C 32.1667,118.167 28.8333,117.833 25.5,117.5C 24.3044,117.846 24.3044,118.346 25.5,119C 22.5,119.667 19.5,119.667 16.5,119C 16.9574,118.586 17.2907,118.086 17.5,117.5C 16.7261,116.289 15.8928,116.289 15,117.5C 14.7216,116.584 14.2216,115.918 13.5,115.5C 10.7719,111.345 9.10526,106.678 8.5,101.5 Z"/></g>
<g><path style="opacity:0.98" fill="#65c87c" d="M 82.5,113.5 C 82.6658,118.179 82.4992,122.845 82,127.5C 81.7468,130.79 80.7468,133.79 79,136.5C 73.9779,128.817 67.1446,123.317 58.5,120C 56.7605,118.483 55.0938,116.983 53.5,115.5C 54.7421,114.957 56.0755,114.623 57.5,114.5C 65.3094,115.947 73.1427,116.947 81,117.5C 81.21,115.942 81.71,114.609 82.5,113.5 Z"/></g>
<g><path style="opacity:0.989" fill="#5fc580" d="M 47.5,114.5 C 57.4044,120.738 66.7377,127.738 75.5,135.5C 79.9136,140.747 82.5803,146.747 83.5,153.5C 82.5,153.5 81.5,153.5 80.5,153.5C 79.7983,146.968 76.465,142.135 70.5,139C 62.1667,138.667 53.8333,138.333 45.5,138C 30.1948,136.83 19.5281,129.33 13.5,115.5C 14.2216,115.918 14.7216,116.584 15,117.5C 15.8928,116.289 16.7261,116.289 17.5,117.5C 17.2907,118.086 16.9574,118.586 16.5,119C 19.5,119.667 22.5,119.667 25.5,119C 24.3044,118.346 24.3044,117.846 25.5,117.5C 28.8333,117.833 32.1667,118.167 35.5,118.5C 40.1133,117.721 44.78,117.221 49.5,117C 48.244,116.583 47.5774,115.75 47.5,114.5 Z"/></g>
<g><path style="opacity:0.842" fill="#96d864" d="M 126.5,151.5 C 125.432,152.434 124.099,152.768 122.5,152.5C 121.064,151.571 119.731,150.405 118.5,149C 111.48,146.938 104.48,144.771 97.5,142.5C 106.443,141.935 115.109,143.435 123.5,147C 125.141,148.129 126.141,149.629 126.5,151.5 Z"/></g>
<g><path style="opacity:0.994" fill="#88d16b" d="M 48.5,151.5 C 46.9731,151.573 45.9731,150.906 45.5,149.5C 48.2433,146.841 51.5766,145.008 55.5,144C 60.4862,143.084 65.4862,142.75 70.5,143C 62.75,144.93 55.4167,147.763 48.5,151.5 Z"/></g>
<g><path style="opacity:0.996" fill="#57c085" d="M 45.5,149.5 C 45.9731,150.906 46.9731,151.573 48.5,151.5C 48.5106,153.017 49.1772,154.184 50.5,155C 73.8137,162.332 97.147,162.332 120.5,155C 121.381,154.292 122.047,153.458 122.5,152.5C 124.099,152.768 125.432,152.434 126.5,151.5C 127.598,152.601 127.765,153.934 127,155.5C 121.015,161.116 113.848,164.283 105.5,165C 98.7833,165.204 92.1166,165.704 85.5,166.5C 73.0564,166.784 61.0564,164.617 49.5,160C 44.6887,157.712 43.3553,154.212 45.5,149.5 Z"/></g>
</svg>
